<svg width="28" height="28" viewBox="0 0 28 28" fill="none" xmlns="http://www.w3.org/2000/svg">
<path d="M25.375 14C25.375 7.71805 20.282 2.625 14 2.625C7.71805 2.625 2.625 7.71805 2.625 14C2.625 20.282 7.71805 25.375 14 25.375C20.282 25.375 25.375 20.282 25.375 14Z" stroke="#28303F" stroke-width="1.5" stroke-miterlimit="10"/>
<path d="M24.3671 9.41391C23.4888 9.41938 23.5752 11.0398 22.4809 10.2752C22.0746 9.99195 21.8247 9.58016 21.3144 9.45492C20.8687 9.34555 20.4121 9.4593 19.9718 9.53531C19.4715 9.62172 18.8781 9.66055 18.4986 10.0395C18.1316 10.4043 17.9375 10.8938 17.547 11.2607C16.7918 11.9716 16.4729 12.7477 16.9618 13.7528C17.4322 14.7191 18.416 15.2436 19.4775 15.1747C20.5204 15.1052 21.6037 14.5004 21.5736 16.0158C21.5627 16.5517 21.6748 16.9236 21.8394 17.4218C21.992 17.8812 21.9816 18.3263 22.0166 18.8005C22.0811 19.6864 22.2441 20.6795 22.6838 21.4621L23.5041 20.3049C23.6053 20.1616 23.8169 19.9609 23.8672 19.792C23.9564 19.4928 23.7808 18.9788 23.7606 18.6435C23.7404 18.3083 23.7502 17.9687 23.6988 17.6334C23.6266 17.1637 23.3488 16.7234 23.3105 16.2591C23.24 15.3945 23.398 14.7044 22.7319 13.9814C22.0888 13.2841 21.146 13.1168 20.2453 13.2584C19.7914 13.3295 17.9643 13.6216 18.6976 12.5841C18.8425 12.3802 19.0958 12.2128 19.2587 12.0187C19.4004 11.8497 19.5234 11.5391 19.6897 11.4073C19.8559 11.2755 20.6193 11.124 20.8381 11.1913C21.0568 11.2585 21.2849 11.5741 21.4747 11.7141C21.8253 11.9781 22.2344 12.1537 22.6674 12.2259C23.4144 12.3353 24.9763 11.9011 24.9643 10.943C24.9621 10.4836 24.5355 9.84375 24.3671 9.41391ZM15.7199 17.2977C15.4284 16.0705 13.761 15.6603 12.8619 14.9948C12.3451 14.612 11.8852 14.0208 11.2065 13.9727C10.8937 13.9502 10.6318 14.018 10.3217 13.9377C10.0373 13.8644 9.81419 13.7113 9.51122 13.7512C8.94521 13.8255 8.5881 14.4304 7.97997 14.3484C7.40302 14.2707 6.80857 13.5959 6.67732 13.0463C6.50888 12.3397 7.06778 12.1105 7.66661 12.0477C7.91653 12.0214 8.19708 11.993 8.43716 12.0843C8.75325 12.2019 8.90255 12.5114 9.18638 12.6678C9.71849 12.9593 9.82622 12.4934 9.74474 12.0209C9.62278 11.3132 9.4806 11.0245 10.1117 10.5377C10.5492 10.202 10.9233 9.95914 10.8533 9.35594C10.8117 9.00156 10.6175 8.84133 10.7986 8.48859C10.9358 8.22008 11.3126 7.97781 11.5582 7.81758C12.192 7.40414 14.2734 7.43477 13.423 6.27758C13.1731 5.93797 12.7121 5.33094 12.2746 5.24781C11.7277 5.14445 11.4849 5.75477 11.1037 6.02383C10.71 6.30219 9.94325 6.61828 9.54896 6.18789C9.01849 5.60875 9.9006 5.41844 10.0958 5.0143C10.2911 4.61016 9.64357 3.84617 9.29685 3.65258L7.66661 5.48078C7.61978 5.78695 7.63608 6.09947 7.71452 6.39911C7.79296 6.69875 7.93187 6.97917 8.12271 7.22313C8.447 7.64039 8.96325 7.77438 8.98677 8.34422C9.00974 8.89109 8.92442 9.17109 8.56677 9.55555C8.412 9.71961 8.30263 9.95258 8.14513 10.1063C7.95208 10.2938 8.02372 10.2364 7.72239 10.2878C7.15583 10.3835 6.67349 10.5312 6.12607 10.6821C5.21388 10.9342 5.12966 9.44398 4.71403 8.85938L3.34685 9.96352C3.33208 10.1445 3.57107 10.4776 3.63614 10.6745C4.00966 11.7994 4.76325 12.6695 5.24997 13.7457C5.76239 14.8854 7.13833 14.5693 7.74591 15.5679C8.28513 16.4538 7.70927 17.5755 8.11286 18.503C8.40599 19.1762 9.09724 19.3233 9.57411 19.8155C10.0614 20.3126 10.051 20.9929 10.1254 21.6398C10.2092 22.4008 10.3454 23.1551 10.5328 23.8973C10.599 24.1538 10.6597 24.4929 10.8352 24.7045C10.9555 24.85 11.3684 24.9752 11.2016 25.0234C11.4346 25.0616 11.8497 25.2793 12.0438 25.1196C12.2997 24.9096 12.2314 24.2632 12.2757 23.9712C12.4086 23.1016 12.8439 22.2513 13.4312 21.6005C14.0115 20.9584 14.8066 20.5237 15.2966 19.7958C15.774 19.0859 15.9179 18.1284 15.7199 17.2977ZM13.8939 18.737C13.5658 19.3227 12.8351 19.7148 12.3654 20.1802C12.2379 20.3066 11.9667 20.7441 11.807 20.6495C11.6927 20.5816 11.6539 20.014 11.6118 19.8838C11.3945 19.2284 10.9798 18.6563 10.4245 18.2459C10.2533 18.1163 9.82896 17.9479 9.73107 17.7702C9.62169 17.5771 9.72013 17.1216 9.72396 16.9116C9.72997 16.6053 9.59052 16.0962 9.66599 15.8178C9.75349 15.4968 9.58505 15.6904 9.87216 15.627C10.0236 15.593 10.6493 15.703 10.8379 15.7423C11.1376 15.8047 11.3028 15.9912 11.539 16.1798C12.1603 16.678 12.8444 17.0636 13.5406 17.4453C14.0798 17.7439 14.2384 18.1218 13.8939 18.737ZM10.0876 3.66898C10.3468 3.92219 10.5908 4.22188 10.9774 4.24703C11.3433 4.27164 11.6883 4.07367 12.0077 4.3225C12.3621 4.59594 12.6175 4.94211 13.0878 5.02742C13.5428 5.11 14.0246 4.84422 14.1372 4.37883C14.2466 3.93531 14.0109 3.45297 13.9967 3.00781C13.9967 2.94602 14.0301 2.67148 13.9874 2.625C13.9557 2.59 13.691 2.62937 13.6505 2.63047C13.3541 2.63922 13.0584 2.65964 12.7635 2.69172C11.6882 2.8081 10.6352 3.0779 9.63646 3.49289C9.76935 3.58477 9.93614 3.62141 10.0876 3.66898ZM19.4906 6.74133C19.9549 6.74133 20.4263 6.53352 20.2765 5.99648C20.1507 5.54641 19.9363 5.05805 19.4146 5.30086C19.0826 5.45508 18.6123 5.84773 18.5735 6.23711C18.5292 6.67899 19.1811 6.74133 19.4906 6.74133ZM19.1198 9.09125C19.594 9.37508 20.2972 9.24164 20.6549 8.83641C20.9343 8.51922 21.099 7.96852 21.6015 7.96906C21.8228 7.9686 22.0354 8.05524 22.1933 8.21024C22.4011 8.42516 22.3601 8.62695 22.4043 8.89602C22.5033 9.50031 23.1514 8.93047 23.3204 8.69641C23.4297 8.54383 23.5779 8.31742 23.5282 8.11891C23.4822 7.93352 23.2657 7.73609 23.1694 7.56602C22.8883 7.07383 22.657 6.50125 22.2359 6.10367C21.8307 5.72086 21.3325 5.76516 20.948 6.16273C20.633 6.49086 20.2672 6.75063 20.0517 7.14984C19.8997 7.43039 19.7285 7.56437 19.4206 7.63711C19.2511 7.67703 19.0575 7.6918 18.9153 7.80555C18.5193 8.11727 18.7447 8.86594 19.1198 9.09125Z" fill="#28303F"/>
</svg>
