<svg width="28" height="28" viewBox="0 0 28 28" fill="none" xmlns="http://www.w3.org/2000/svg">
<path d="M4.66667 24.5C3.69445 24.5 2.86806 24.1597 2.1875 23.4792C1.50695 22.7986 1.16667 21.9722 1.16667 21C1.16667 20.4944 1.26389 20.013 1.45833 19.5557C1.65278 19.0983 1.94445 18.7048 2.33333 18.375V12.8333H4.66667V5.83332H14L19.4833 18.7542C19.6 19.0264 19.6875 19.2986 19.7458 19.5708C19.8042 19.843 19.8333 20.125 19.8333 20.4167C19.8333 21.5444 19.4347 22.5069 18.6375 23.3042C17.8403 24.1014 16.8778 24.5 15.75 24.5C14.9528 24.5 14.2186 24.2912 13.5473 23.8735C12.8761 23.4558 12.376 22.8869 12.047 22.1667H7.96367C7.71089 22.8667 7.28311 23.4305 6.68033 23.8583C6.07756 24.2861 5.40633 24.5 4.66667 24.5ZM21 23.3333V4.66666H23.3333V21H26.8333V23.3333H21ZM4.66667 22.1667C4.99722 22.1667 5.2745 22.0547 5.4985 21.8307C5.7225 21.6067 5.83411 21.3298 5.83333 21C5.83333 20.6694 5.72133 20.3922 5.49733 20.1682C5.27333 19.9442 4.99645 19.8325 4.66667 19.8333C4.33611 19.8333 4.05883 19.9453 3.83483 20.1693C3.61083 20.3933 3.49922 20.6702 3.5 21C3.5 21.3305 3.612 21.6078 3.836 21.8318C4.06 22.0558 4.33689 22.1674 4.66667 22.1667ZM15.75 22.1667C16.2361 22.1667 16.6495 21.9963 16.9902 21.6557C17.3308 21.315 17.5008 20.902 17.5 20.4167C17.5 19.9305 17.3297 19.5172 16.989 19.1765C16.6483 18.8358 16.2353 18.6659 15.75 18.6667C15.2639 18.6667 14.8505 18.837 14.5098 19.1777C14.1692 19.5183 13.9992 19.9313 14 20.4167C14 20.9028 14.1703 21.3162 14.511 21.6568C14.8517 21.9975 15.2647 22.1674 15.75 22.1667ZM7.9625 19.8333H11.6958C11.7347 19.6194 11.7783 19.4199 11.8265 19.2348C11.8747 19.0497 11.9478 18.8603 12.0458 18.6667H9.42083L6.00833 15.1667H4.66667V17.5C5.40556 17.5 6.07639 17.7139 6.67917 18.1417C7.28195 18.5694 7.70972 19.1333 7.9625 19.8333ZM10.4125 16.3333H15.925L12.4542 8.16666H7V12.8333L10.4125 16.3333ZM9.42083 18.6667L8.88067 18.1125C8.52133 17.743 8.13245 17.3394 7.714 16.9015C7.29556 16.4636 6.90667 16.0654 6.54733 15.7068L6.00833 15.1667L9.42083 18.6667Z" fill="#28303F"/>
</svg>
