<svg width="30" height="30" viewBox="0 0 30 30" fill="none" xmlns="http://www.w3.org/2000/svg">
<path d="M17.8259 17.421L19.1097 17.5558V28.006L15.5635 24.2193V18.1949L16.5935 18.6979L17.8259 17.421ZM12.1739 17.421L10.8894 17.5558V28.006L14.4356 24.2193V18.1949L13.4057 18.6979L12.1739 17.421ZM21.899 10.874L22.3145 12.3201L21.0673 13.161L20.9629 14.6635L19.5034 15.0268L18.8925 16.4017L17.3962 16.2437L16.3515 17.323L14.9999 16.6627L13.6483 17.323L12.6036 16.2401L11.1073 16.3982L10.4965 15.0233L9.03697 14.6635L8.93253 13.1631L7.68181 12.3194L8.09732 10.8733L7.21552 9.65502L8.10015 8.43812L7.68181 6.99485L8.9297 6.15399L9.03414 4.6535L10.4965 4.29374L11.1073 2.9189L12.6036 3.07689L13.6483 1.99406L14.9999 2.65437L16.3515 1.99406L17.3962 3.07689L18.8925 2.9189L19.5034 4.29374L20.9629 4.65706L21.0673 6.1575L22.3145 6.99836L21.899 8.44451L22.7843 9.65502L21.899 10.874ZM19.1161 9.65502C19.1161 8.84706 18.8765 8.05725 18.4276 7.38546C17.9787 6.71366 17.3407 6.19006 16.5943 5.88087C15.8478 5.57168 15.0264 5.49078 14.234 5.6484C13.4416 5.80603 12.7137 6.1951 12.1424 6.76641C11.571 7.33773 11.182 8.06562 11.0243 8.85806C10.8667 9.65049 10.9476 10.4719 11.2568 11.2183C11.566 11.9648 12.0896 12.6028 12.7614 13.0517C13.4332 13.5005 14.223 13.7401 15.031 13.7401C16.1139 13.7384 17.152 13.3075 17.9177 12.5418C18.6834 11.776 19.1144 10.7379 19.1161 9.65502ZM15.031 6.69854C14.4462 6.69854 13.8746 6.87193 13.3885 7.19679C12.9023 7.52164 12.5234 7.98337 12.2996 8.52358C12.0758 9.06379 12.0173 9.65823 12.1313 10.2317C12.2454 10.8052 12.527 11.332 12.9404 11.7455C13.3539 12.1589 13.8807 12.4405 14.4542 12.5546C15.0276 12.6687 15.6221 12.6101 16.1623 12.3864C16.7025 12.1626 17.1642 11.7837 17.4891 11.2975C17.814 10.8113 17.9874 10.2397 17.9874 9.65502C17.9851 8.87181 17.6729 8.12135 17.1189 7.56773C16.5649 7.01411 15.8142 6.70238 15.031 6.70069V6.69854Z" fill="#28303F"/>
</svg>
