<svg width="24" height="24" viewBox="0 0 24 24" fill="none" xmlns="http://www.w3.org/2000/svg">
<path d="M9 1.92188C8.39062 1.92188 7.725 2.23828 7.14844 2.75297C6.56719 3.26719 6.08906 3.97031 5.83125 4.64813C5.57812 5.325 5.56406 5.95312 5.78438 6.36094C6.00469 6.76875 6.46875 7.07812 7.5 7.07812H16.5C17.5312 7.07812 17.9953 6.76875 18.2156 6.36094C18.4359 5.95312 18.4219 5.325 18.1688 4.64813C17.9109 3.97031 17.4328 3.26719 16.8516 2.75297C16.275 2.23828 15.6094 1.92188 15 1.92188H9ZM7.92188 7.92188V20.5781H16.0781V7.92188H7.92188ZM1.5 11.9062V13.5938H7.07812V11.9062H1.5ZM16.9219 11.9062V13.5938H22.5V11.9062H16.9219ZM4.07812 20.25V21.4219H3.42188V22.8281H20.5781V21.4219H19.9219V20.25H19.0781V21.4219H4.92188V20.25H4.07812Z" fill="#28303F"/>
</svg>
